<svg width="50" height="50" viewBox="0 0 50 50" fill="none" xmlns="http://www.w3.org/2000/svg">
<path d="M25 37.5V10.4167" stroke="black" stroke-width="2" stroke-linecap="round" stroke-linejoin="round"/>
<path d="M31.25 27.0833C29.4475 26.5564 27.8643 25.4596 26.7375 23.9573C25.6107 22.4549 25.0011 20.6279 25 18.75C24.9989 20.6279 24.3893 22.4549 23.2625 23.9573C22.1357 25.4596 20.5525 26.5564 18.75 27.0833" stroke="black" stroke-width="2" stroke-linecap="round" stroke-linejoin="round"/>
<path d="M36.6625 13.5417C37.1419 12.7114 37.4239 11.782 37.4866 10.8254C37.5493 9.86875 37.3912 8.9105 37.0243 8.02477C36.6575 7.13904 36.0918 6.34957 35.371 5.71745C34.6502 5.08532 33.7937 4.62748 32.8676 4.37935C31.9416 4.13122 30.9709 4.09944 30.0306 4.28648C29.0904 4.47352 28.2057 4.87437 27.4451 5.458C26.6846 6.04163 26.0685 6.79241 25.6445 7.65226C25.2205 8.5121 25 9.45796 25 10.4167C25 9.45796 24.7795 8.5121 24.3555 7.65226C23.9315 6.79241 23.3154 6.04163 22.5549 5.458C21.7943 4.87437 20.9096 4.47352 19.9694 4.28648C19.0291 4.09944 18.0584 4.13122 17.1324 4.37935C16.2063 4.62748 15.3498 5.08532 14.629 5.71745C13.9082 6.34957 13.3425 7.13904 12.9757 8.02477C12.6088 8.9105 12.4507 9.86875 12.5134 10.8254C12.5761 11.782 12.8581 12.7114 13.3375 13.5417" stroke="black" stroke-width="2" stroke-linecap="round" stroke-linejoin="round"/>
<path d="M37.4937 10.6771C38.7183 10.9919 39.8552 11.5813 40.8183 12.4006C41.7813 13.2199 42.5453 14.2476 43.0524 15.4059C43.5595 16.5642 43.7963 17.8227 43.745 19.086C43.6937 20.3494 43.3556 21.5846 42.7562 22.6979" stroke="black" stroke-width="2" stroke-linecap="round" stroke-linejoin="round"/>
<path d="M37.5 37.5C39.3344 37.4999 41.1175 36.8946 42.5728 35.7779C44.0281 34.6611 45.0742 33.0954 45.549 31.3235C46.0238 29.5517 45.9007 27.6726 45.1987 25.9779C44.4968 24.2831 43.2552 22.8673 41.6667 21.95" stroke="black" stroke-width="2" stroke-linecap="round" stroke-linejoin="round"/>
<path d="M41.5979 36.4229C41.7439 37.5526 41.6568 38.7002 41.3419 39.7948C41.027 40.8895 40.4911 41.908 39.7671 42.7874C39.0432 43.6668 38.1467 44.3885 37.1329 44.9078C36.1191 45.4272 35.0096 45.7332 33.873 45.8069C32.7363 45.8807 31.5966 45.7207 30.5242 45.3367C29.4518 44.9527 28.4695 44.353 27.638 43.5745C26.8065 42.796 26.1434 41.8553 25.6897 40.8106C25.2359 39.7658 25.0012 38.6391 25 37.5C24.9988 38.6391 24.7641 39.7658 24.3103 40.8106C23.8566 41.8553 23.1935 42.796 22.362 43.5745C21.5305 44.353 20.5482 44.9527 19.4758 45.3367C18.4034 45.7207 17.2637 45.8807 16.127 45.8069C14.9904 45.7332 13.8809 45.4272 12.8671 44.9078C11.8534 44.3885 10.9568 43.6668 10.2329 42.7874C9.50896 41.908 8.97299 40.8895 8.6581 39.7948C8.34321 38.7002 8.25608 37.5526 8.40209 36.4229" stroke="black" stroke-width="2" stroke-linecap="round" stroke-linejoin="round"/>
<path d="M12.5 37.5C10.6656 37.4999 8.8825 36.8946 7.42721 35.7779C5.97192 34.6611 4.92576 33.0954 4.45098 31.3235C3.9762 29.5517 4.09933 27.6726 4.80128 25.9779C5.50322 24.2831 6.74475 22.8673 8.33333 21.95" stroke="black" stroke-width="2" stroke-linecap="round" stroke-linejoin="round"/>
<path d="M12.5062 10.6771C11.2817 10.9919 10.1448 11.5813 9.18173 12.4006C8.21866 13.2199 7.45466 14.2476 6.94759 15.4059C6.44051 16.5642 6.20366 17.8227 6.25497 19.086C6.30628 20.3494 6.64441 21.5846 7.24375 22.6979" stroke="black" stroke-width="2" stroke-linecap="round" stroke-linejoin="round"/>
</svg>
