<svg width="50" height="50" viewBox="0 0 50 50" fill="none" xmlns="http://www.w3.org/2000/svg">
<path d="M33.6875 16.3125L4.16666 45.8333" stroke="black" stroke-width="2" stroke-linecap="round" stroke-linejoin="round"/>
<path d="M8.37499 25C7.76459 24.49 7.26383 23.8617 6.90289 23.1529C6.54195 22.4441 6.32831 21.6696 6.27487 20.876C6.22144 20.0824 6.3293 19.2862 6.59196 18.5354C6.85461 17.7847 7.26662 17.0949 7.80313 16.5077C8.33964 15.9205 8.98954 15.448 9.71361 15.1188C10.4377 14.7896 11.2209 14.6105 12.0161 14.5923C12.8113 14.574 13.6019 14.7171 14.3404 15.0127C15.0788 15.3084 15.7496 15.7505 16.3125 16.3125C15.7505 15.7497 15.3083 15.0788 15.0127 14.3404C14.717 13.602 14.574 12.8113 14.5922 12.0162C14.6105 11.221 14.7896 10.4377 15.1188 9.71364C15.448 8.98957 15.9204 8.33967 16.5076 7.80316C17.0948 7.26665 17.7846 6.85464 18.5354 6.59199C19.2862 6.32933 20.0824 6.22147 20.876 6.2749C21.6696 6.32834 22.4441 6.54198 23.1529 6.90292C23.8617 7.26386 24.49 7.76463 25 8.37502C25.51 7.76463 26.1383 7.26386 26.8471 6.90292C27.5559 6.54198 28.3304 6.32834 29.124 6.2749C29.9176 6.22147 30.7138 6.32933 31.4646 6.59199C32.2153 6.85464 32.9051 7.26665 33.4923 7.80316C34.0795 8.33967 34.552 8.98957 34.8812 9.71364C35.2104 10.4377 35.3895 11.221 35.4077 12.0162C35.426 12.8113 35.2829 13.602 34.9873 14.3404C34.6916 15.0788 34.2495 15.7497 33.6875 16.3125C34.2504 15.7505 34.9212 15.3084 35.6596 15.0127C36.398 14.7171 37.1887 14.574 37.9838 14.5923C38.779 14.6105 39.5623 14.7896 40.2864 15.1188C41.0104 15.448 41.6603 15.9205 42.1968 16.5077C42.7333 17.0949 43.1454 17.7847 43.408 18.5354C43.6707 19.2862 43.7785 20.0824 43.7251 20.876C43.6717 21.6696 43.458 22.4441 43.0971 23.1529C42.7361 23.8617 42.2354 24.49 41.625 25C42.2354 25.51 42.7361 26.1383 43.0971 26.8471C43.458 27.5559 43.6717 28.3304 43.7251 29.124C43.7785 29.9176 43.6707 30.7138 43.408 31.4646C43.1454 32.2154 42.7333 32.9052 42.1968 33.4924C41.6603 34.0796 41.0104 34.552 40.2864 34.8812C39.5623 35.2104 38.779 35.3895 37.9838 35.4078C37.1887 35.426 36.398 35.283 35.6596 34.9873C34.9212 34.6917 34.2504 34.2495 33.6875 33.6875C34.2495 34.2504 34.6916 34.9212 34.9873 35.6597C35.2829 36.3981 35.426 37.1887 35.4077 37.9839C35.3895 38.7791 35.2104 39.5623 34.8812 40.2864C34.552 41.0105 34.0795 41.6604 33.4923 42.1969C32.9051 42.7334 32.2153 43.1454 31.4646 43.408C30.7138 43.6707 29.9176 43.7786 29.124 43.7251C28.3304 43.6717 27.5559 43.4581 26.8471 43.0971C26.1383 42.7362 25.51 42.2354 25 41.625C24.49 42.2354 23.8617 42.7362 23.1529 43.0971C22.4441 43.4581 21.6696 43.6717 20.876 43.7251C20.0824 43.7786 19.2862 43.6707 18.5354 43.408C17.7846 43.1454 17.0948 42.7334 16.5076 42.1969C15.9204 41.6604 15.448 41.0105 15.1188 40.2864C14.7896 39.5623 14.6105 38.7791 14.5922 37.9839C14.574 37.1887 14.717 36.3981 15.0127 35.6597C15.3083 34.9212 15.7505 34.2504 16.3125 33.6875C15.1605 34.7456 13.6353 35.3027 12.0725 35.2363C10.5097 35.1699 9.03726 34.4854 7.97915 33.3333C6.92105 32.1813 6.36393 30.6561 6.43035 29.0933C6.49677 27.5305 7.18129 26.0581 8.33332 25" stroke="black" stroke-width="2" stroke-linecap="round" stroke-linejoin="round"/>
<path d="M16.3125 16.3125L33.6875 33.6875" stroke="black" stroke-width="2" stroke-linecap="round" stroke-linejoin="round"/>
</svg>
