<svg width="50" height="50" viewBox="0 0 50 50" fill="none" xmlns="http://www.w3.org/2000/svg">
<path d="M12.5 45.8333C15.9518 45.8333 18.75 43.0351 18.75 39.5833C18.75 36.1315 15.9518 33.3333 12.5 33.3333C9.04822 33.3333 6.25 36.1315 6.25 39.5833C6.25 43.0351 9.04822 45.8333 12.5 45.8333Z" stroke="black" stroke-width="2" stroke-linecap="round" stroke-linejoin="round"/>
<path d="M18.75 39.5834H36.4583C38.3922 39.5834 40.2469 38.8151 41.6143 37.4477C42.9818 36.0802 43.75 34.2256 43.75 32.2917C43.75 30.3578 42.9818 28.5032 41.6143 27.1357C40.2469 25.7682 38.3922 25 36.4583 25H13.5417C11.6078 25 9.75313 24.2318 8.38568 22.8643C7.01823 21.4969 6.25 19.6422 6.25 17.7084C6.25 15.7745 7.01823 13.9198 8.38568 12.5524C9.75313 11.1849 11.6078 10.4167 13.5417 10.4167H31.25" stroke="black" stroke-width="2" stroke-linecap="round" stroke-linejoin="round"/>
<path d="M37.5 16.6667C40.9518 16.6667 43.75 13.8685 43.75 10.4167C43.75 6.96491 40.9518 4.16669 37.5 4.16669C34.0482 4.16669 31.25 6.96491 31.25 10.4167C31.25 13.8685 34.0482 16.6667 37.5 16.6667Z" stroke="black" stroke-width="2" stroke-linecap="round" stroke-linejoin="round"/>
</svg>
